# xmcd
#
# Track frame offsets:
#	150
#	21439
#	34517
#	58985
#	76111
#	88847
#	103773
#	118649
#	140849
#	159358
#	175391
#	208292
#
# Disc length: 4020 seconds
#
# Revision: 0
# Processed by: cddbd v1.5.2PL0 Copyright (c) Steve Scherf et al.
# Submitted via: audiograbber 1.83.01
#
DISCID=a90fb20c
DTITLE=Patrick Verbeke - Bluesographie
DYEAR=2007
DGENRE=Blues
TTITLE0=Le blues du bébé heureux
TTITLE1=Slim et Mickey
TTITLE2=La première dame
TTITLE3=Mai 68
TTITLE4=Sonny Boy
TTITLE5=Ca roule
TTITLE6=Blues in my Soul
TTITLE7=Chanteur, presque plus rien
TTITLE8=Balade au pays du Blues
TTITLE9=Radio Show
TTITLE10=Memphis, Paris, New-Orleans
TTITLE11=Piste de données
EXTD=
EXTT0=
EXTT1=
EXTT2=
EXTT3=
EXTT4=
EXTT5=
EXTT6=
EXTT7=
EXTT8=
EXTT9=
EXTT10=
EXTT11=
PLAYORDER=
